<svg clip-rule="evenodd" fill-rule="evenodd" stroke-linejoin="round" stroke-miterlimit="1.414" viewBox="0 0 156 48" xmlns="http://www.w3.org/2000/svg"><path d="M0 1.218h18.68c2.437 0 4.636.316 6.599.948 1.963.631 3.643 1.568 5.042 2.809 1.399 1.24 2.482 2.786 3.249 4.636s1.15 3.993 1.15 6.429c0 2.978-.654 5.562-1.962 7.75a15.07 15.07 0 0 1-5.212 5.245l9.679 17.327h-12.86l-7.648-15.364h-5.008v15.364H0V1.218zM17.529 21.59c1.58 0 2.866-.485 3.858-1.455.993-.97 1.489-2.267 1.489-3.892 0-1.714-.474-3.068-1.421-4.06-.948-.993-2.279-1.489-3.993-1.489h-5.753V21.59zM37.495 1.218h11.98v26.464c0 2.481.575 4.512 1.726 6.091 1.15 1.579 3.057 2.369 5.719 2.369s4.557-.801 5.685-2.403 1.692-3.621 1.692-6.057V1.218h12.115v27.547c0 2.887-.474 5.493-1.421 7.817-.948 2.323-2.29 4.297-4.027 5.922-1.737 1.624-3.79 2.865-6.159 3.722-2.369.858-4.975 1.286-7.817 1.286-2.843 0-5.46-.428-7.851-1.286-2.392-.857-4.456-2.087-6.193-3.688-1.737-1.602-3.08-3.565-4.027-5.889-.948-2.323-1.422-4.952-1.422-7.884V1.218zm45.55 30.863c1.263 1.263 2.91 2.414 4.941 3.452 2.03 1.037 4.263 1.556 6.7 1.556.587 0 1.196-.056 1.827-.169a5.536 5.536 0 0 0 1.692-.575c.497-.271.903-.632 1.219-1.083s.473-1.038.473-1.76c0-1.173-.597-2.143-1.793-2.91s-2.944-1.534-5.245-2.301l-2.505-.812a29.178 29.178 0 0 1-4.23-1.76c-1.421-.722-2.696-1.591-3.824-2.606s-2.041-2.211-2.741-3.587c-.699-1.376-1.049-2.989-1.049-4.839 0-2.076.384-4.005 1.151-5.787s1.884-3.339 3.35-4.67 3.283-2.369 5.448-3.113C90.625.372 93.129 0 95.972 0c2.211 0 4.219.203 6.024.609 1.804.406 3.384.903 4.737 1.489 1.354.587 2.504 1.218 3.452 1.895.947.677 1.669 1.286 2.166 1.828l-6.092 7.715a24.907 24.907 0 0 0-4.94-2.876 13.126 13.126 0 0 0-5.279-1.117 7.82 7.82 0 0 0-1.76.203 5.806 5.806 0 0 0-1.591.609 3.447 3.447 0 0 0-1.15 1.049c-.293.429-.44.959-.44 1.591 0 .677.169 1.263.507 1.759.339.497.801.925 1.388 1.286s1.297.689 2.132.982 1.726.598 2.673.914l2.166.676c1.534.497 3.091 1.072 4.67 1.726s3.001 1.534 4.264 2.64c1.263 1.105 2.301 2.481 3.113 4.128.813 1.647 1.219 3.666 1.219 6.058 0 2.075-.485 3.993-1.456 5.753-.97 1.759-2.278 3.271-3.925 4.534-1.647 1.264-3.587 2.245-5.821 2.944-2.233.7-4.613 1.05-7.14 1.05-4.512 0-8.291-.598-11.337-1.794-3.045-1.196-5.628-2.809-7.749-4.839zM114.72 1.218h11.979v16.514h16.65V1.218h11.979v45.144h-11.979V28.697h-16.65v17.665H114.72V1.218z"/></svg>