<svg viewBox="0 0 205 52" xmlns="http://www.w3.org/2000/svg" fill-rule="evenodd" clip-rule="evenodd" stroke-linejoin="round" stroke-miterlimit="1.41421"><path d="M0 1.334h13.861l6.375 33.134L28.019 2.52h11.935l7.857 31.948 6.301-33.134h13.416L55.223 50.776H41.51l-7.783-31.281-7.783 31.281H12.008L0 1.334z" fill-rule="nonzero"/><path d="M90.359 51.962c-3.706 0-7.129-.655-10.267-1.964-3.138-1.31-5.855-3.114-8.153-5.412-2.298-2.297-4.09-5.04-5.374-8.228-1.285-3.187-1.928-6.658-1.928-10.414 0-3.756.643-7.227 1.928-10.415 1.284-3.187 3.076-5.93 5.374-8.228 2.298-2.298 5.015-4.089 8.153-5.374C83.23.642 86.653 0 90.359 0c3.706 0 7.141.642 10.303 1.927 3.163 1.285 5.881 3.076 8.154 5.374 2.273 2.298 4.052 5.041 5.337 8.228 1.285 3.188 1.927 6.659 1.927 10.415 0 3.756-.642 7.227-1.927 10.414-1.285 3.188-3.064 5.931-5.337 8.228-2.273 2.298-4.991 4.102-8.154 5.412-3.162 1.309-6.597 1.964-10.303 1.964zm0-12.305c1.927 0 3.644-.358 5.152-1.075a11.181 11.181 0 0 0 3.817-2.928c1.038-1.235 1.828-2.693 2.372-4.373.544-1.68.815-3.459.815-5.337 0-1.878-.271-3.657-.815-5.337-.544-1.68-1.334-3.138-2.372-4.374a11.191 11.191 0 0 0-3.817-2.927c-1.508-.717-3.225-1.075-5.152-1.075s-3.645.358-5.152 1.075a11.181 11.181 0 0 0-3.817 2.927c-1.038 1.236-1.829 2.694-2.372 4.374-.544 1.68-.816 3.459-.816 5.337 0 1.878.272 3.657.816 5.337.543 1.68 1.334 3.138 2.372 4.373a11.172 11.172 0 0 0 3.817 2.928c1.507.717 3.225 1.075 5.152 1.075z" fill-rule="nonzero"/><path d="M117.859 1.334h20.459c2.668 0 5.078.346 7.227 1.038 2.15.692 3.991 1.717 5.523 3.076 1.531 1.359 2.717 3.052 3.558 5.078.84 2.026 1.26 4.373 1.26 7.042 0 3.261-.717 6.09-2.15 8.487a16.5 16.5 0 0 1-5.708 5.745l10.6 18.976h-14.084l-8.376-16.827h-5.485v16.827h-12.824V1.334zm19.199 22.312c1.729 0 3.138-.531 4.225-1.594 1.087-1.062 1.631-2.483 1.631-4.262 0-1.878-.519-3.36-1.557-4.447-1.038-1.088-2.495-1.631-4.373-1.631h-6.301v11.934h6.375z" fill-rule="nonzero"/><path d="M159.221 1.334h18.976c3.805 0 7.326.494 10.563 1.483 3.237.988 6.041 2.495 8.413 4.521 2.372 2.027 4.226 4.621 5.56 7.784 1.334 3.162 2.001 6.893 2.001 11.193 0 4.101-.679 7.671-2.038 10.711-1.359 3.039-3.225 5.584-5.597 7.635-2.372 2.05-5.188 3.582-8.45 4.595-3.261 1.013-6.77 1.52-10.526 1.52h-18.902V1.334zm18.458 37.878c4.299 0 7.622-1.223 9.969-3.669 2.348-2.446 3.521-5.621 3.521-9.525 0-1.977-.271-3.768-.815-5.374-.544-1.606-1.371-2.99-2.483-4.151-1.112-1.161-2.508-2.063-4.188-2.706-1.681-.642-3.682-.963-6.004-.963h-5.338v26.388h5.338z" fill-rule="nonzero"/><defs><linearGradient id="word-fill" x2="1" gradientUnits="userSpaceOnUse" gradientTransform="matrix(0 32.7827 -32.7827 0 100.017 0)"><stop offset="0" stop-color="#121532"/><stop offset="1" stop-color="#38409d"/></linearGradient></defs></svg>
